<svg width="64" height="64" viewBox="0 0 64 64" fill="none" xmlns="http://www.w3.org/2000/svg">
<path d="M61.33 44C61.3333 43.9334 61.3333 43.8666 61.33 43.8C61.33 43.74 61.33 43.68 61.33 43.61C61.3333 43.5434 61.3333 43.4766 61.33 43.41C61.33 43.35 61.33 43.29 61.33 43.23C61.3333 43.1634 61.3333 43.0966 61.33 43.03C61.3069 42.962 61.2802 42.8952 61.25 42.83C61.25 42.83 61.25 42.74 61.2 42.69C61.1636 42.6245 61.1235 42.5611 61.08 42.5L60.99 42.36L60.86 42.23L60.71 42.08L60.52 42L60.31 41.86L60.18 41.81L59.97 41.73H59.78H59.59H59.2H59.01H58.82L58.62 41.81L58.48 41.87C53.3974 44.4715 47.6209 45.3949 41.9806 44.5072C36.3403 43.6196 31.1266 40.9668 27.0886 36.93C23.0507 32.8932 20.3964 27.6802 19.5073 22.0401C18.6181 16.4001 19.5398 10.6233 22.14 5.54002C22.14 5.54002 22.14 5.45002 22.19 5.40002C22.2202 5.33484 22.2469 5.26807 22.27 5.20002C22.2733 5.13339 22.2733 5.06664 22.27 5.00002C22.27 4.94002 22.27 4.88002 22.27 4.82002C22.2733 4.75339 22.2733 4.68664 22.27 4.62002C22.27 4.56002 22.27 4.50002 22.27 4.43002C22.2733 4.36339 22.2733 4.29664 22.27 4.23002C22.27 4.17002 22.27 4.11002 22.27 4.05002C22.2473 3.97858 22.2206 3.90846 22.19 3.84002C22.19 3.84002 22.19 3.75002 22.14 3.71002C22.1007 3.64083 22.0572 3.57404 22.01 3.51002L21.92 3.38002L21.78 3.24002L21.64 3.10002L21.5 3.00002L21.29 2.86002H21.17L20.95 2.77002H20.77H20.57H20.18H19.99H19.8L19.59 2.85002L19.46 2.90002C15.1328 5.13469 11.393 8.35745 8.54363 12.3071C5.6943 16.2567 3.81563 20.8221 3.05987 25.6333C2.30411 30.4445 2.69253 35.366 4.19365 39.999C5.69476 44.6321 8.26635 48.8462 11.7 52.3C15.1482 55.7408 19.3587 58.3205 23.9901 59.83C28.6215 61.3395 33.5435 61.7364 38.3569 60.9883C43.1703 60.2403 47.7398 58.3685 51.6946 55.5246C55.6495 52.6808 58.8786 48.9449 61.12 44.62C61.12 44.62 61.12 44.53 61.17 44.49C61.2006 44.4216 61.2273 44.3515 61.25 44.28C61.3 44.16 61.31 44.09 61.33 44ZM33.6 57.37C28.2806 57.3477 23.0863 55.7547 18.6691 52.7907C14.2518 49.8268 10.8086 45.6241 8.77142 40.7102C6.73428 35.7963 6.19405 30.3901 7.21855 25.1702C8.24304 19.9504 10.7866 15.1494 14.53 11.37C15.08 10.82 15.66 10.3 16.26 9.80002C14.812 15.0649 14.7846 20.6194 16.1804 25.8983C17.5763 31.1772 20.3457 35.9922 24.2067 39.8533C28.0678 43.7143 32.8827 46.4837 38.1617 47.8795C43.4406 49.2754 48.9951 49.248 54.26 47.8C53.76 48.39 53.26 48.96 52.7 49.51C50.1945 52.0184 47.2162 54.0047 43.9376 55.3539C40.659 56.7031 37.1453 57.3884 33.6 57.37V57.37Z" fill="white"/>
</svg>
