<svg width="50" height="50" viewBox="0 0 50 50" fill="none" xmlns="http://www.w3.org/2000/svg">
<path d="M31.324 25.2241C31.324 21.3641 28.183 18.2241 24.324 18.2241C20.465 18.2241 17.324 21.3641 17.324 25.2241C17.324 29.0831 20.465 32.2241 24.324 32.2241C28.183 32.2241 31.324 29.0831 31.324 25.2241ZM24.324 30.2241C21.567 30.2241 19.324 27.9811 19.324 25.2241C19.324 22.4671 21.567 20.2241 24.324 20.2241C27.081 20.2241 29.324 22.4671 29.324 25.2241C29.324 27.9811 27.081 30.2241 24.324 30.2241Z" fill="white"/>
<path d="M23.324 34.0898V40.2238C23.324 40.7768 23.771 41.2238 24.324 41.2238C24.877 41.2238 25.324 40.7768 25.324 40.2238V34.0898C25.324 33.5368 24.877 33.0898 24.324 33.0898C23.771 33.0898 23.324 33.5368 23.324 34.0898Z" fill="white"/>
<path d="M23.324 10.2241V16.3581C23.324 16.9101 23.771 17.3581 24.324 17.3581C24.877 17.3581 25.324 16.9101 25.324 16.3581V10.2241C25.324 9.67212 24.877 9.22412 24.324 9.22412C23.771 9.22412 23.324 9.67112 23.324 10.2241Z" fill="white"/>
<path d="M34.224 36.5369C34.419 36.7319 34.675 36.8299 34.931 36.8299C35.187 36.8299 35.443 36.7319 35.638 36.5369C36.029 36.1459 36.029 35.5139 35.638 35.1229L31.3 30.7859C30.909 30.3949 30.277 30.3949 29.886 30.7859C29.495 31.1769 29.495 31.8089 29.886 32.1999L34.224 36.5369Z" fill="white"/>
<path d="M13.011 13.9102C12.62 14.3012 12.62 14.9332 13.011 15.3242L17.349 19.6612C17.544 19.8562 17.8 19.9542 18.056 19.9542C18.312 19.9542 18.568 19.8562 18.763 19.6612C19.154 19.2702 19.154 18.6382 18.763 18.2472L14.425 13.9102C14.034 13.5202 13.401 13.5202 13.011 13.9102Z" fill="white"/>
<path d="M39.3239 24.2241H33.1899C32.6369 24.2241 32.1899 24.6721 32.1899 25.2241C32.1899 25.7761 32.6369 26.2241 33.1899 26.2241H39.3239C39.8769 26.2241 40.3239 25.7761 40.3239 25.2241C40.3239 24.6721 39.8769 24.2241 39.3239 24.2241Z" fill="white"/>
<path d="M8.32397 25.2241C8.32397 25.7761 8.77097 26.2241 9.32397 26.2241H15.458C16.011 26.2241 16.458 25.7761 16.458 25.2241C16.458 24.6721 16.011 24.2241 15.458 24.2241H9.32397C8.77097 24.2241 8.32397 24.6711 8.32397 25.2241Z" fill="white"/>
<path d="M34.224 13.9101L29.886 18.2481C29.495 18.6391 29.495 19.2711 29.886 19.6621C30.081 19.8571 30.337 19.9551 30.593 19.9551C30.849 19.9551 31.105 19.8571 31.3 19.6621L35.638 15.3241C36.029 14.9331 36.029 14.3011 35.638 13.9101C35.247 13.5191 34.614 13.5201 34.224 13.9101Z" fill="white"/>
<path d="M13.718 36.8299C13.974 36.8299 14.23 36.7319 14.425 36.5369L18.763 32.1999C19.154 31.8089 19.154 31.1769 18.763 30.7859C18.372 30.3949 17.74 30.3949 17.349 30.7859L13.011 35.1229C12.62 35.5139 12.62 36.1459 13.011 36.5369C13.206 36.7319 13.462 36.8299 13.718 36.8299Z" fill="white"/>
</svg>
